# xmcd
#
# Track frame offsets: 
#        150
#        18999
#        43014
#        65549
#        97630
#
# Disc length: 1612 seconds
#
# Revision: 0
# Processed by: cddbd v1.5.2PL0 Copyright (c) Steve Scherf et al.
# Submitted via: ExactAudioCopy v0.95a5
#
DISCID=32064a05
DTITLE=Goin' Back Home - Stepwater Band
DYEAR=1900
DGENRE=
TTITLE0=Goin' Back Home
TTITLE1=I Can't Be Satisfied
TTITLE2=House Is Burnin'
TTITLE3=She's Nineteen Years Old
TTITLE4=Dust My Broom
EXTD=
EXTT0=
EXTT1=
EXTT2=
EXTT3=
EXTT4=
PLAYORDER=
